<svg xmlns="http://www.w3.org/2000/svg" viewBox="0 0 512 512"><rect width="512" height="512" rx="96" fill="#111626"/><path d="M144 88h224v56l-24 40v140l32 44v56H136v-56l32-44V184l-24-40z" fill="#ffcf4d"/><path d="M184 164h144v124H184z" fill="#243858"/><path d="M204 196h24v24h-24zm72 40h24v24h-24z" fill="#71d2a1"/><path d="M232 220h48v24h-48z" fill="#ff6fa8"/><path d="M168 316h176l20 40H148z" fill="#efaa3e"/><path d="M192 314h12v24h-12z" fill="#111626"/><circle cx="198" cy="312" r="13" fill="#ff6fa8"/><circle cx="290" cy="332" r="10" fill="#111626"/><circle cx="322" cy="330" r="10" fill="#111626"/><rect x="228" y="384" width="56" height="12" rx="4" fill="#111626"/></svg>
